<svg width="32" height="32" viewBox="0 0 32 32" fill="none" xmlns="http://www.w3.org/2000/svg">
<g clip-path="url(#clip0_10124_14701)">
<path d="M16 32C24.8366 32 32 24.8366 32 16C32 7.16344 24.8366 0 16 0C7.16344 0 0 7.16344 0 16C0 24.8366 7.16344 32 16 32Z" fill="black"/>
<path opacity="0.9" fill-rule="evenodd" clip-rule="evenodd" d="M21.577 4.16853C21.6889 4.09041 21.7728 4.05293 21.9377 4.01855C22.1646 3.96543 22.5159 4.03105 22.7057 4.15603C22.8612 4.25916 22.9358 4.38727 22.9358 4.54037C22.9358 4.64037 22.6156 5.68402 21.4184 9.4743C21.0328 10.6992 20.6782 11.8241 20.4078 12.6803H18.7597C18.8499 12.3928 18.9525 12.0709 19.0675 11.7085V11.7054L19.0707 11.6991L19.0738 11.6866L19.08 11.671L19.0831 11.6585C19.1484 11.4522 19.2168 11.2335 19.2914 10.9992C19.9537 8.89935 20.4948 7.17452 20.4887 7.16827C20.4854 7.16202 17.6962 9.89614 14.9816 12.5615H14.6302H13.035H5.74007C5.33273 12.5584 5 12.2241 5 11.8116C5 11.4022 5.33273 11.0679 5.74007 11.0679H14.5401C18.0165 7.64634 21.5024 4.22166 21.577 4.16853ZM17.5874 14.0458H22.8954H26.2879C26.6578 14.0458 26.9595 14.3457 26.9658 14.7176C26.9876 14.7676 27 14.8238 27 14.8801C27 14.9644 26.9845 15.0238 26.944 15.0832C26.86 15.2082 13.8964 28.7632 13.7875 28.8382C13.7378 28.8757 13.6321 28.9257 13.5543 28.9507C13.3678 29.0132 13.0692 29.0162 12.8858 28.96C12.721 28.91 12.5655 28.81 12.4878 28.707C12.4784 28.6945 12.4691 28.685 12.4629 28.6757C12.4567 28.6695 12.4473 28.66 12.4442 28.6537C12.3572 28.5382 12.4318 28.2945 13.6321 24.4948L13.6352 24.4886C13.7253 24.2011 13.8249 23.8918 13.9275 23.5605C14.3099 22.345 14.6613 21.2264 14.9318 20.3734H16.5799C16.4928 20.6514 16.3933 20.9639 16.2845 21.3139C16.2254 21.5012 16.1632 21.7045 16.0948 21.9137C15.4449 23.9698 14.9194 25.6541 14.9225 25.6571C14.9287 25.6603 24.6958 15.4613 24.7113 15.4363C24.7176 15.4269 23.5205 15.4206 21.7386 15.4206C19.7641 15.4206 19.0955 15.4206 18.8281 15.4081H17.407C17.0308 15.4081 16.7292 15.1019 16.7292 14.7269C16.7292 14.352 17.0339 14.0458 17.407 14.0458H17.5874ZM11.5238 14.0458C9.92551 15.6237 8.59151 16.9424 7.96339 17.5704C7.82036 17.6329 7.70529 17.7485 7.64311 17.8923C7.60268 17.9329 7.58091 17.9548 7.57781 17.961C7.49075 18.1141 7.53116 18.2985 7.66798 18.4422C7.77371 18.6329 7.97582 18.761 8.20593 18.761H12.155H15.4325H17.0743H17.0899C17.4319 18.761 17.7056 18.4829 17.7056 18.1423C17.7056 17.8017 17.4288 17.5236 17.0899 17.5236H9.93794C10.252 17.2111 11.7197 15.7675 13.4642 14.052H11.5238V14.0458ZM9.93794 6.48082C9.93794 6.06836 10.2707 5.73714 10.678 5.73714H16.356C16.7634 5.73714 17.0961 6.07148 17.0961 6.48082C17.0961 6.89016 16.7634 7.22452 16.356 7.22452H10.678C10.2676 7.22452 9.93794 6.89016 9.93794 6.48082ZM5.74007 21.8575C5.33273 21.8575 5 22.192 5 22.6012C5 23.0105 5.33273 23.345 5.74007 23.345H11.4181C11.8254 23.345 12.1582 23.0105 12.1582 22.6012C12.1582 22.192 11.8254 21.8575 11.4181 21.8575H5.74007Z" fill="white"/>
</g>
<defs>
<clipPath id="clip0_10124_14701">
<rect width="32" height="32" fill="white"/>
</clipPath>
</defs>
</svg>
